<svg version="1.1" id="svg1" width="958.66669" height="1078.6667" viewBox="0 0 958.66669 1078.6667" sodipodi:docname="78a.svg" inkscape:version="1.3 (0e150ed6c4, 2023-07-21)" xmlns:inkscape="http://www.inkscape.org/namespaces/inkscape" xmlns:sodipodi="http://sodipodi.sourceforge.net/DTD/sodipodi-0.dtd" xmlns="http://www.w3.org/2000/svg" xmlns:svg="http://www.w3.org/2000/svg">
  <defs id="defs1"/>
  <sodipodi:namedview id="namedview1" pagecolor="#ffffff" bordercolor="#000000" borderopacity="0.25" inkscape:showpageshadow="2" inkscape:pageopacity="0.0" inkscape:pagecheckerboard="0" inkscape:deskcolor="#d1d1d1" showgrid="false" inkscape:zoom="0.74629166" inkscape:cx="479.70521" inkscape:cy="539.33337" inkscape:window-width="1920" inkscape:window-height="1011" inkscape:window-x="0" inkscape:window-y="0" inkscape:window-maximized="1" inkscape:current-layer="svg1"/>
  <g inkscape:groupmode="layer" id="layer1" inkscape:label="Layer 1">
    <path style="fill:#000000" d="m 479.37876,1056.1432 c -2.50689,-7.8985 15.38944,-74.16711 24.11967,-89.31308 8.78316,-15.23781 37.94281,-46.7767 47.98425,-51.89946 2.97836,-1.51945 10.16319,-3.98637 15.96627,-5.48206 19.07137,-4.91543 57.17186,-21.25771 71.69651,-30.75247 5.23667,-3.42321 11.53515,-8.52392 13.99662,-11.33491 4.22977,-4.83038 4.44654,-5.56431 3.94939,-13.37192 -0.30515,-4.7922 -1.49858,-9.74533 -2.84218,-11.79591 -1.27388,-1.94419 -9.6511,-9.35144 -18.61604,-16.46055 -8.96495,-7.10911 -22.49979,-18.51183 -30.07743,-25.33939 -7.57764,-6.82756 -14.23562,-12.13062 -14.7955,-11.78459 -0.55989,0.34603 -1.42502,9.24367 -1.92251,19.77253 -1.03734,21.95431 -3.84938,42.82113 -6.14306,45.58486 -3.07129,3.70067 -13.00695,6.04348 -36.69474,8.65256 -30.83667,3.3965 -55.91557,5.08188 -90,6.04829 -36.06455,1.02255 -44.68379,2.68381 -56,10.79338 -16.69892,11.967 -19.15075,16.00055 -22.84165,37.57721 -2.7339,15.98209 -3.62203,18.69416 -7.0548,21.54311 -2.37411,1.97034 -58.40458,7.98651 -74.94029,8.04657 -15.34091,0.0557 -15.5897,-0.50694 -7.76838,-17.56911 3.46032,-7.54867 7.03418,-15.82958 7.94192,-18.40201 3.01702,-8.54997 16.8661,-35.17577 23.81281,-45.78179 5.75399,-8.78498 8.23911,-11.27163 15.5272,-15.53673 11.66042,-6.82384 23.86386,-15.91748 33.9389,-25.29027 4.57698,-4.25795 9.76085,-8.56051 11.5197,-9.56123 2.48598,-1.41443 14.923,-1.98658 55.86459,-2.56998 50.14552,-0.71455 53.10831,-0.89598 61.89258,-3.79002 5.52096,-1.81892 10.80728,-4.6209 13.16376,-6.97738 3.54509,-3.54509 3.87489,-4.593 3.30668,-10.50652 -0.4324,-4.50007 -1.75956,-7.94491 -4.21429,-10.9388 -6.7574,-8.24164 -22.51321,-32.37045 -25.49054,-39.03681 -3.6662,-8.20877 -5.99152,-18.74553 -5.99152,-27.14951 0,-5.19212 -0.66934,-6.99012 -3.66667,-9.84954 -4.13457,-3.94434 -10.59394,-6.77541 -13.1878,-5.78005 -0.95036,0.36469 -2.58508,2.7145 -3.6327,5.22181 -1.62619,3.89203 -2.85109,4.77375 -8.37546,6.02889 -6.90077,1.56787 -36.62381,4.48641 -37.43447,3.67575 -0.26599,-0.26599 -0.84121,-2.80795 -1.27827,-5.64881 -1.6717,-10.86579 -6.85052,-11.42337 -17.3103,-1.86371 -4.16416,3.8058 -9.64481,7.35885 -12.85361,8.33287 -6.32563,1.9201 -54.25246,2.4075 -62.60415,0.63666 -7.25795,-1.53894 -9.03805,-5.12841 -9.37365,-18.90144 l -0.28293,-11.61128 14.66667,-5.16929 c 21.13057,-7.4475 31.05375,-12.83463 36.27421,-19.69267 2.41585,-3.17368 4.39246,-6.52395 4.39246,-7.44505 0,-1.61939 -7.56907,-7.2265 -20,-14.81585 -3.3,-2.01472 -9,-6.19612 -12.66667,-9.292 -9.66004,-8.15625 -14.58127,-10.2655 -41.86405,-17.943 -29.20703,-8.21899 -37.28701,-11.32772 -52.09627,-20.04377 -18.08208,-10.64227 -21.24612,-10.2751 -26.55658,3.08176 -8.28571,20.84025 -20.10209,77.97197 -22.36147,108.11682 -1.13825,15.18669 0.15907,20.03407 7.30698,27.30221 L 202,734.2005 l 16.94778,2.24625 c 25.42744,3.37016 23.28481,1.32713 24.26115,23.13328 0.4536,10.13101 1.50529,29.00765 2.33708,41.94807 0.8318,12.94043 1.14305,24.49043 0.69169,25.66667 -0.45137,1.17625 -1.82402,2.13863 -3.05033,2.13863 -1.22632,0 -12.19515,-5.62799 -24.37518,-12.50664 -12.18004,-6.87866 -24.84552,-13.86311 -28.14552,-15.52101 -11.07273,-5.56288 -21.92864,-13.66338 -31.75665,-23.6963 -8.39085,-8.56579 -10.94841,-12.40864 -18.26993,-27.4514 -4.68231,-9.62023 -10.1093,-23.0791 -12.06,-29.90859 -4.37709,-15.32444 -4.06555,-21.25978 2.56167,-48.80408 6.45377,-26.82337 9.72739,-47.34852 12.24568,-76.77867 4.21575,-49.26761 7.15215,-59.3835 20.38038,-70.21047 11.40203,-9.33227 15.56651,-10.6827 37.19451,-12.06117 10.42928,-0.66472 19.36056,-1.60681 19.84729,-2.09353 0.48672,-0.48673 -1.21331,-4.35368 -3.77786,-8.59323 -2.56455,-4.23955 -10.10971,-16.7326 -16.76704,-27.76234 -14.25771,-23.62192 -15.75439,-25.25525 -22.05847,-24.0726 -10.42068,1.95493 -42.56885,25.2484 -59.91321,43.41106 -10.68103,11.18497 -12.06528,13.67228 -17.09388,30.71561 -4.861063,16.47546 -3.249791,21.27179 11.0637,32.93368 4.62209,3.76584 10.45696,8.98133 12.96636,11.58996 4.15373,4.31798 4.41945,5.05706 2.96547,8.2482 -0.8784,1.92787 -11.58594,18.72971 -23.79454,37.33742 -16.449313,25.07119 -22.61621,33.48467 -23.81455,32.49013 -4.619574,-3.8339 -33.671629,-74.50467 -37.929899,-92.26662 -3.902074,-16.27619 -3.505373,-20.4818 4.118876,-43.6661 14.316264,-43.53382 19.025072,-49.99231 55.836673,-76.58425 11.768,-8.50096 26.89391,-21.38142 53.9739,-45.96146 12.8042,-11.62214 22.53385,-16.11855 34.88147,-16.11992 11.25144,-0.001 13.60326,1.41399 33.54098,20.18366 14.91204,14.03843 27.86306,24.25862 29.47672,23.26132 0.63244,-0.39086 1.92772,-3.57612 2.87841,-7.07835 4.87364,-17.95403 17.09026,-33.53938 31.85133,-40.63433 11.4238,-5.49089 13.45261,-7.31955 13.45261,-12.1255 0,-3.1908 -2.18605,-6.20457 -11.03721,-15.21631 l -11.03722,-11.23746 -5.29612,4.22223 c -8.32901,6.64014 -15.22383,9.59162 -24.06426,10.30125 -11.44322,0.91855 -12.32645,-0.53969 -11.50561,-18.99614 0.39508,-8.88315 0.13436,-14.01476 -0.71202,-14.01476 -0.73443,0 -3.29002,6.75 -5.67909,15 -2.38907,8.25 -5.28117,16.62457 -6.42688,18.61016 -5.66383,9.81576 -18.43549,7.37297 -38.41539,-7.34757 -9.49087,-6.99257 -14.77002,-13.40673 -16.65594,-20.23696 -1.08052,-3.91333 -0.76213,-6.79317 1.64901,-14.9151 2.66821,-8.98788 2.81997,-10.87926 1.41774,-17.66822 -2.05851,-9.9663 -1.98593,-13.08869 0.56491,-24.30387 1.90451,-8.37353 2.64428,-9.68832 6.84602,-12.1674 l 4.71078,-2.77943 -0.7664,-13.42914 c -0.77361,-13.55542 -4.54227,-29.96217 -10.99438,-47.86366 -3.18571,-8.8388 -3.21942,-9.31051 -1.16941,-16.36228 2.54052,-8.73909 1.49759,-23.78918 -1.91858,-27.68621 -1.19714,-1.36564 -7.87662,-5.40076 -14.84328,-8.96691 -16.41105,-8.40064 -20.44445,-11.7864 -20.44445,-17.16175 0,-2.28641 1.21253,-5.78413 2.69452,-7.77272 2.61933,-3.51474 3.15268,-3.63422 19.11462,-4.28229 10.22617,-0.41519 16.6037,-1.22142 16.90682,-2.137329 0.26769,-0.808865 -4.02422,-4.865858 -9.53757,-9.015539 -13.20756,-9.94081 -14.64716,-15.662338 -6.21265,-24.691507 4.64268,-4.970014 8.01173,-5.213634 18.51202,-1.338627 5.62,2.073994 12.38099,3.058492 25.63335,3.732581 15.04104,0.765072 19.82587,1.562295 29.10712,4.849667 l 11.10711,3.934086 3.19027,-4 c 7.71832,-9.677296 6.20331,-9.118721 22.45101,-8.27751 16.24321,0.840979 22.96877,2.573136 24.12406,6.213107 1.66301,5.239687 5.38812,6.65843 24.76091,9.430426 61.4754,8.796334 93.36937,22.563925 127.41171,54.999515 27.67735,26.37102 41.55676,50.57938 55.64361,97.05323 3.95919,13.06172 4.9705,19.26693 6.83772,41.95507 2.38918,29.0303 2.94812,32.62618 5.07136,32.62618 0.77868,0 5.51363,-1.88882 10.52212,-4.19739 10.05831,-4.63617 10.11182,-4.75652 7.02619,-15.80261 -3.24063,-11.60096 -3.94713,-37.12845 -1.42685,-51.55553 2.0309,-11.62566 9.14438,-30.62672 15.49602,-41.39195 6.17649,-10.46838 3.57851,-12.29062 -17.52288,-12.29062 -16.61639,0 -22.5802,-1.04373 -24.59544,-4.30447 -0.58026,-0.93887 -1.49021,-8.30189 -2.02211,-16.36226 -0.94124,-14.26337 -1.07725,-14.74577 -5.08653,-18.04187 -5.00415,-4.11399 -5.17271,-7.1144 -1.16499,-20.73662 l 2.9304,-9.96041 -2.9304,-2.73008 c -1.61172,-1.50155 -2.9304,-3.23024 -2.9304,-3.84153 0,-0.6113 -3.01157,-4.87887 -6.69237,-9.4835 -5.04401,-6.309974 -6.47685,-9.061184 -5.81734,-11.169946 1.81742,-5.811151 9.0574,-14.539934 16.76809,-20.216219 11.82446,-8.70467 15.44209,-9.440365 35.5427,-7.228094 9.27607,1.020924 25.56559,1.973346 36.19892,2.116494 28.82484,0.388046 53.27697,6.659657 65.82846,16.884029 4.13743,3.370326 11.62199,7.652662 16.90035,9.669637 5.21076,1.991141 9.8169,4.513581 10.23588,5.605423 0.41898,1.091841 0.0651,5.003586 -0.78652,8.692766 -1.21539,5.26536 -2.80115,7.8104 -7.37506,11.83653 -4.69915,4.13635 -5.99883,6.27634 -6.71589,11.05805 -1.11143,7.41156 -4.77103,12.18692 -10.16639,13.26599 -2.28835,0.45767 -6.95668,2.09389 -10.37407,3.63605 -5.47438,2.47041 -5.88518,2.93161 -3.45373,3.87749 1.51784,0.59047 6.91784,1.49195 12,2.00329 18.19711,1.8309 28.57408,4.91634 28.57297,8.49577 -3.7e-4,1.19436 -1.21234,5.3595 -2.69326,9.25586 -1.48093,3.89636 -2.34258,7.65063 -1.91478,8.34282 1.30394,2.10981 7.14891,4.6485 25.94204,11.26758 9.9,3.48686 22.91604,8.35699 28.92453,10.82253 13.09075,5.37167 14.53728,5.47529 15.63047,1.1197 1.52224,-6.06512 3.26931,-35.22291 4.79162,-79.97026 0.82329,-24.2 1.79021,-45.981535 2.1487,-48.40341 0.72455,-4.894771 2.882,-6.292948 7.8041,-5.05758 5.05366,1.268389 8.51879,5.885986 11.38807,15.175623 3.84926,12.462466 4.23756,12.936887 7.62592,9.317328 5.9999,-6.409292 15.01993,-28.685731 15.01993,-37.094154 0,-1.968003 1.18877,-5.08946 2.64171,-6.936572 3.45915,-4.397598 12.65906,-8.135946 15.83685,-6.435243 4.08168,2.184446 13.52144,13.265021 13.52144,15.871722 0,1.373514 1.90324,8.729622 4.22941,16.346906 4.09205,13.399812 4.18252,14.218208 2.78545,25.199161 -1.95649,15.377999 -5.69526,24.593469 -13.81768,34.058389 -3.756,4.37681 -9.31192,13.05783 -12.34647,19.29117 -4.88619,10.0368 -5.49296,12.3248 -5.30394,20 0.20154,8.18368 4.87846,33.06921 11.07676,58.93856 2.40461,10.03592 2.58747,12.83053 1.35233,20.66666 -2.58848,16.4222 -7.81099,35.22521 -11.69148,42.09379 -8.50003,15.04527 -17.11411,15.13252 -62.28438,0.6308 l -30.66667,-9.8454 -0.87819,3.42446 c -0.483,1.88346 -2.21876,19.92104 -3.85725,40.08351 -2.41073,29.66538 -3.38784,36.97288 -5.12181,38.30412 -1.77321,1.36137 -9.26669,4.48531 -18.62767,7.76566 -1.3668,0.47897 -1.62018,2.37116 -1.0205,7.62085 0.43877,3.84102 1.46603,16.91234 2.2828,29.04737 1.28575,19.10276 1.19157,23.66554 -0.70182,34 -3.12731,17.06941 -6.69669,26.98613 -12.41475,34.49153 -4.3449,5.70304 -14.06849,13.72177 -19.29718,15.91377 -3.29885,1.38296 10.51667,11.20065 33.4948,23.80233 5.62346,3.08402 5.2394,6.42067 -1.1969,10.39852 -2.93615,1.81465 -5.15541,3.90629 -4.93169,4.64809 0.57958,1.9217 9.66529,6.23541 29.60349,14.05516 9.53334,3.73897 21.87602,8.58378 27.42819,10.76626 19.08588,7.50237 31.62165,15.58158 45.29766,29.19399 9.8316,9.78587 14.06606,15.20283 18.61867,23.81801 6.20005,11.73274 7.47962,12.94695 12.32513,11.69561 5.60179,-1.44665 19.82709,-11.81771 23.1995,-16.91376 5.39253,-8.14866 5.56049,-14.47791 0.6443,-24.27846 -2.29581,-4.57677 -5.85079,-10.1214 -7.89995,-12.3214 -6.40111,-6.87228 -21.44777,-18.43239 -44.28016,-34.01971 -37.47048,-25.58052 -47.6071,-35.49353 -58.00344,-56.72392 -7.7776,-15.88266 -9.21761,-23.10592 -8.2426,-41.34595 1.12039,-20.95971 4.08055,-33.84448 11.16016,-48.5771 10.7507,-22.37215 31.32573,-39.38089 57.75255,-47.74225 13.02054,-4.11966 18.78661,-4.64177 32.12185,-2.90858 25.84598,3.3592 80.24048,21.63311 94.91955,31.88835 11.26725,7.87164 12.01547,11.31268 7.74119,35.60124 -7.2923,41.43844 -15.03087,81.13381 -16.26738,83.44424 -0.76809,1.43519 -3.50748,3.49144 -6.08754,4.56946 -4.30872,1.8003 -5.41373,1.72105 -13.55934,-0.97247 -4.87758,-1.61287 -9.91019,-3.44568 -11.18357,-4.0729 -4.03754,-1.98876 -13.97655,-1.32482 -16.39669,1.09532 -1.77058,1.77058 -2.05291,3.614 -1.35699,8.8601 1.44531,10.89527 10.38201,24.7913 20.99819,32.65094 7.64768,5.66192 20.72009,22.32667 26.50805,33.79257 5.36867,10.63527 8.28164,25.48656 7.64024,38.95248 -0.43325,9.09603 -1.3143,12.53845 -5.47237,21.38151 -11.68583,24.85255 -24.94803,33.41896 -69.48812,44.88429 -10.93562,2.815 -20.27404,5.75101 -20.75206,6.52447 -0.47802,0.77345 -1.56477,8.7514 -2.415,17.72876 -2.71488,28.66592 -5.02811,39.09711 -11.6737,52.64103 -8.43236,17.18538 -19.52247,31.44967 -40.49401,52.08405 l -18.0257,17.73591 2.43221,6.84805 c 1.33772,3.76643 8.70979,19.78527 16.38239,35.59742 l 13.95019,28.74938 -4.42737,3.73533 c -7.70913,6.50414 -117.93036,58.95745 -139.58423,66.42691 -3.93627,1.35781 -10.09529,4.27677 -13.68669,6.48659 -3.59141,2.20981 -6.87755,4.01784 -7.30253,4.01784 -2.54627,0 -19.06904,12.77225 -21.85391,16.89327 -3.22251,4.76863 -3.33333,5.66611 -3.33333,26.99416 v 22.0615 l -40.00001,13.656 c -47.82522,16.3276 -46.83412,16.0684 -47.95458,12.5382 z m 49.41858,-28.5316 23.86934,-8.3436 -0.0971,-5.39 c -0.18397,-10.2173 0.58492,-9.8779 -22.38006,-9.8779 -25.07651,0 -24.9233,-0.084 -29.3343,16 -1.70952,6.2333 -3.56684,12.7624 -4.12736,14.509 -0.97025,3.0234 -0.79803,3.1342 3.59048,2.311 2.53528,-0.4757 15.35081,-4.6195 28.47895,-9.2085 z m 22.48119,-30.61152 c 0.29049,-0.91667 0.90292,-5.02131 1.36095,-9.12141 1.06966,-9.57504 6.69663,-18.29678 17.36053,-26.90861 7.99229,-6.45433 21.93267,-13.8293 32,-16.92918 2.93334,-0.90321 7.73334,-2.73358 10.66667,-4.06747 5.81778,-2.64557 38.64183,-17.58635 86.76548,-39.49375 16.92101,-7.70298 32.4716,-15.36583 34.55687,-17.02857 l 3.7914,-3.02316 -3.83233,-11.21393 c -2.10778,-6.16767 -9.02045,-21.41394 -15.36147,-33.8806 -6.34103,-12.46667 -11.92431,-23.91207 -12.40729,-25.43422 -0.74227,-2.33934 0.72574,-3.8122 9.48796,-9.51932 12.94322,-8.43034 35.5892,-31.66644 45.94666,-47.14397 15.90885,-23.77316 19.59521,-36.79296 19.67287,-69.48237 0.0608,-25.60159 0.15939,-25.83599 11.36902,-27.03644 10.55699,-1.13056 40.926,-8.56661 51.64386,-12.64534 14.11688,-5.37224 28.94787,-18.49186 33.6642,-29.77962 5.53355,-13.24364 3.21597,-33.94744 -5.85356,-52.29208 -4.12302,-8.33949 -8.65755,-14.30288 -20.78413,-27.33333 -8.5308,-9.16667 -18.01908,-19.91987 -21.08505,-23.89599 -5.57073,-7.22446 -5.57449,-7.23721 -5.57449,-18.92595 0,-11.55343 0.0571,-11.75609 4.66667,-16.55418 5.19607,-5.40862 13.10948,-9.95722 17.32304,-9.95722 4.13226,0 11.45425,3.38619 20.13588,9.31223 4.26513,2.91135 8.02074,4.8571 8.3458,4.3239 0.58852,-0.96538 7.52862,-31.19827 7.52862,-32.79667 0,-3.78436 -27.59384,2.86861 -43.86355,10.57564 -20.6608,9.78712 -26.22461,15.50561 -30.19046,31.02981 -2.02371,7.92176 -2.01365,8.60369 0.16237,11.00817 3.66291,4.04746 1.11998,4.56314 -2.86265,0.58052 -3.37641,-3.37641 -3.54684,-4.13925 -2.96173,-13.25644 0.5151,-8.02641 1.31439,-10.67607 4.69344,-15.55885 2.23994,-3.23674 5.48636,-7.17252 7.21426,-8.74619 4.72996,-4.30775 39.65877,-18.78129 54.27616,-22.49054 14.83632,-3.76481 17.9779,-6.46062 15.3895,-13.20587 -0.69248,-1.80459 -3.91652,-2.10434 -22.33333,-2.07645 -11.83821,0.0179 -24.22402,0.63598 -27.52402,1.37345 -3.3,0.73747 -13.2,4.87816 -22,9.20153 -22.36806,10.98925 -32.56614,21.46776 -35.39123,36.3644 -0.68504,3.61218 -1.55447,7.06749 -1.93206,7.67845 -0.3776,0.61097 -0.7774,3.42943 -0.88844,6.26326 -0.16276,4.15374 0.87081,6.56736 5.33252,12.45269 6.55502,8.64656 7.47226,12.97812 1.54588,7.30029 -2.2,-2.10773 -4,-4.39078 -4,-5.07343 0,-0.68266 -1.77475,-3.26252 -3.94389,-5.73304 -5.68198,-6.47141 -7.34264,-13.80633 -5.38205,-23.7718 0.87152,-4.42988 2.36883,-9.56199 3.32734,-11.4047 4.20772,-8.08917 21.05615,-22.09958 35.2678,-29.32712 12.65025,-6.43348 19.95757,-8.02578 43.33337,-9.44255 12.50192,-0.75772 26.03077,-1.79835 30.0641,-2.31252 l 7.33333,-0.93484 1.63625,-10.66667 c 2.19861,-14.33277 2.14548,-13.73065 1.90713,-21.61271 -0.17191,-5.68508 -0.87568,-7.58201 -3.87671,-10.44932 -5.42392,-5.18221 -12.23748,-9.18329 -19,-11.15723 -3.3,-0.96325 -7.2,-2.22117 -8.66667,-2.79538 -1.46667,-0.57421 -7.3181,-2.35475 -13.0032,-3.95675 l -10.33653,-2.91273 -12.89419,2.93741 c -14.53575,3.31136 -41.74357,14.85897 -55.33055,23.48352 -4.89379,3.10642 -11.88926,7.16391 -15.54549,9.01666 -3.65623,1.85275 -8.73133,5.93617 -11.278,9.07425 -5.48145,6.75441 -11.61204,18.52222 -11.61204,22.28957 0,4.597 7.55603,23.62363 11.87401,29.89959 2.26929,3.29831 4.12599,7.04341 4.12599,8.32244 0,6.31817 -17.83665,-17.17162 -19.85282,-26.14496 -2.6524,-11.80494 3.06609,-27.09272 14.75873,-39.45597 13.49936,-14.27359 38.64355,-28.57681 63.42742,-36.08056 6.78334,-2.05378 12.33334,-4.10442 12.33334,-4.55699 0,-1.48556 -19.90688,-5.23418 -27.7959,-5.23418 -9.24487,0 -18.76465,2.66122 -32.05647,8.96125 -18.62514,8.82792 -33.77246,28.84149 -40.35774,53.32313 -4.02475,14.96252 -4.08434,36.45961 -0.13597,49.04896 6.76975,21.58533 19.53037,36.87449 44.62483,53.46732 22.73052,15.02975 58.07232,41.63596 63.46545,47.7784 5.92889,6.75263 9.5329,14.34526 11.13998,23.46876 1.26156,7.16202 1.09192,8.43141 -2.04149,15.27567 -2.02239,4.41749 -6.56574,10.58459 -11.13004,15.10783 -11.03226,10.93302 -33.27918,21.85296 -39.58821,19.43196 -1.18862,-0.45612 -5.26411,-6.91194 -9.05664,-14.34628 -5.46201,-10.70696 -8.99229,-15.61692 -16.98165,-23.61831 -10.01633,-10.0314 -21.19428,-18.40312 -31.41949,-23.53161 -2.93333,-1.47122 -16.13333,-6.62817 -29.33333,-11.45989 -13.2,-4.83171 -31.46036,-12.07078 -40.57857,-16.08681 -15.53438,-6.84198 -16.80663,-7.18395 -20.19951,-5.42942 -5.64136,2.91726 -12.51641,11.81223 -22.07154,28.55624 -18.20217,31.89673 -28.15969,44.04021 -43.68284,53.27251 -9.86496,5.86712 -18.25977,8.02982 -35.0518,9.03018 -22.86761,1.36229 -43.81587,-3.3894 -70.07165,-15.89436 -7.87742,-3.75181 -14.77742,-6.36348 -15.33333,-5.80371 -1.2575,1.26621 -1.20231,21.4915 0.072,26.3898 0.7273,2.79561 1.99546,3.80652 5.63077,4.4885 2.59,0.48589 5.3063,2.02798 6.06314,3.44214 2.08495,3.89576 5.22331,21.80234 5.22331,29.80267 0,3.90885 0.37599,8.08679 0.83552,9.28432 1.15731,3.01591 15.78338,10.13875 32.63723,15.89422 14.76149,5.04095 53.46043,13.50791 56.46656,12.35435 0.95483,-0.36641 3.28265,-7.27375 5.17292,-15.34965 2.0753,-8.86643 5.51378,-18.81174 8.67946,-25.10414 5.24229,-10.42005 23.45084,-36.42067 25.50584,-36.42067 1.8941,0 2.19456,10.66759 0.41938,14.88952 -0.93682,2.22803 -4.71112,9.03055 -8.38734,15.11672 -9.31696,15.4247 -13.47339,27.06213 -14.28421,39.99376 -0.60073,9.58118 -0.19727,12.11316 3.96469,24.88079 8.82035,27.0581 28.73653,55.03006 53.21815,74.74402 6.84116,5.50889 18.85522,16.6646 26.6979,24.79047 15.69859,16.26542 16.55918,18.04371 16.18407,33.44214 -0.24085,9.88713 -2.0088,12.9295 -11.89546,20.47024 -13.46514,10.27011 -53.34588,29.00214 -85.48488,40.15234 -17.76649,6.16384 -19.91423,7.35488 -28.49398,15.80137 -7.06767,6.9579 -22.82869,24.88079 -28.98743,32.96351 -3.3421,4.38617 -10.37101,23.74366 -9.0876,25.02707 0.43247,0.43247 6.5747,1.27471 13.6494,1.87163 7.0747,0.59692 13.1866,1.40881 13.58199,1.80421 1.52619,1.52618 15.02976,0.70331 15.55298,-0.94776 z M 759.9352,440.4703 c -1.25645,-3.80709 -1.24846,-6.45609 0.0368,-12.19934 1.46097,-6.52832 2.83778,-8.54162 12.50155,-18.28102 12.88924,-12.9901 22.9075,-18.33552 41.33346,-22.05418 13.41662,-2.70769 44.6896,-5.88356 45.91078,-4.66238 1.87287,1.87288 -2.85205,3.70677 -12.56083,4.87525 -5.76967,0.6944 -15.59031,2.50894 -21.82364,4.03231 -26.28829,6.42462 -42.42182,15.42983 -53.94786,30.1119 -5.58286,7.11155 -6.05053,8.2997 -6.0513,15.37386 -0.001,9.09775 -2.8359,10.56986 -5.39899,2.8036 z m 35.04482,-22.13694 c 0.72318,-2.25057 13.87271,-10.07528 19.57982,-11.65109 2.71405,-0.74938 5.18536,-0.78034 6.03454,-0.0756 0.87699,0.72784 4.55333,0.11382 9.42189,-1.57363 6.48517,-2.24778 12.319,-2.88668 31.08008,-3.40378 15.47715,-0.42658 23.56803,-0.16489 24.5262,0.79328 1.9709,1.9709 -1.75576,2.60373 -20.2892,3.44536 -8.43333,0.38297 -18.33333,1.64575 -22,2.80618 -3.66667,1.16042 -11.37064,2.70895 -17.11994,3.44117 -5.74931,0.73222 -14.37074,2.80583 -19.15875,4.60803 -9.71764,3.65771 -12.86759,4.07773 -12.07464,1.61006 z m -14.9381,-32.66666 c 0.0793,-1.89188 6.16619,-5.44041 12.04964,-7.02465 3.2414,-0.87282 8.17676,-2.7518 10.96745,-4.17551 7.94624,-4.05386 28.69143,-10.46651 33.85963,-10.46651 3.55827,0 5.64764,1.03733 8.72806,4.33333 l 4.04991,4.33333 -17.18163,1.47859 c -20.54612,1.76813 -25.20122,2.67852 -30.67234,5.99858 -2.28656,1.38756 -5.66798,2.52284 -7.51426,2.52284 -1.84628,0 -5.07546,0.8963 -7.17595,1.99178 -4.14758,2.16311 -7.1769,2.59264 -7.11051,1.00822 z M 348.29169,927.90195 c 5.66042,-0.85084 11.16757,-2.22684 12.2381,-3.05777 1.07053,-0.83093 2.35749,-4.95343 2.85991,-9.16112 0.80569,-6.74753 0.62025,-7.74521 -1.57143,-8.45424 -1.36671,-0.44214 -3.68493,-1.32676 -5.1516,-1.96582 -2.59519,-1.13078 -23.2142,-5.06048 -32.74101,-6.23998 -2.98485,-0.36956 -5.294,0.0793 -6.23389,1.21183 -1.97407,2.37861 -14.99885,28.0901 -15.0136,29.63751 -0.0144,1.50648 31.55545,0.14273 45.61352,-1.97041 z m 19.37638,-35.23522 c 3.7846,-9.61435 12.72828,-18.56633 27.90868,-27.93459 14.34174,-8.85071 19.66511,-9.66282 74.42326,-11.35381 44.32171,-1.36869 94.33816,-4.60583 97.04887,-6.28115 0.68932,-0.42602 2.46397,-3.5115 3.94368,-6.85661 2.13856,-4.83457 2.91501,-10.61063 3.78564,-28.16127 0.60239,-12.14358 1.4551,-26.07879 1.89489,-30.96713 0.77657,-8.6315 0.6183,-9.24689 -5.48667,-21.33333 -3.45747,-6.845 -7.92608,-17.54545 -9.93024,-23.77878 -2.73327,-8.50102 -4.42851,-11.71874 -6.78338,-12.8755 -4.78423,-2.35011 -55.49197,-12.86369 -57.78976,-11.98195 -2.87633,1.10375 -2.59619,10.75469 0.58017,19.98694 3.95251,11.48815 11.1363,24.23614 21.37243,37.92642 11.13995,14.89909 14.64788,24.06896 12.25847,32.04412 -4.90565,16.37358 -17.57474,20.46491 -70.8941,22.89438 -53.18568,2.42338 -68.8961,3.71101 -73.34441,6.01132 -7.01654,3.62839 -47.04653,34.67369 -52.90869,41.03337 -7.40131,8.02948 -13.2638,19.385 -10.54623,20.42783 6.09916,2.34047 35.3105,9.54558 38.05879,9.38737 2.68655,-0.15465 3.81299,-1.59378 6.4086,-8.18763 z M 230.36228,777.94396 c 0.40488,-26.847 0.085,-28.03874 -8.01664,-29.86595 -6.78309,-1.52984 -8.47909,0.20634 -10.99491,11.25538 -1.16884,5.13333 -4.00228,13.41054 -6.29653,18.3938 -3.58239,7.78117 -3.90424,9.31237 -2.27945,10.84463 3.65593,3.44772 23.24761,14.1428 25.22525,13.77045 1.67362,-0.31512 2.05913,-4.29678 2.36228,-24.39831 z m -33.43977,-0.9439 c 2.26176,-2.38333 5.03106,-6.15994 6.154,-8.39246 2.64799,-5.26447 6.55948,-20.37248 5.65385,-21.83782 -0.38549,-0.62375 -2.82607,-1.53277 -5.42351,-2.02006 -4.23696,-0.79485 -8.74083,-3.19622 -17.51255,-9.33732 -1.5798,-1.10603 -4.80379,-5.97557 -7.16443,-10.82122 l -4.29207,-8.81027 0.96265,-14.85279 c 0.60432,-9.3241 3.86384,-29.25978 8.75667,-53.5571 11.04898,-54.86803 16.96662,-73.81908 24.61569,-78.83094 3.21604,-2.10723 4.44565,-2.1775 11.79214,-0.67394 4.51095,0.92323 15.40172,4.69296 24.20172,8.37719 8.8,3.68423 21.7,9.08426 28.66667,12.00007 31.12841,13.02841 55.20656,15.82456 95.74886,11.11913 8.0926,-0.93925 8.25114,-0.89598 8.25114,2.25176 0,6.9155 -5.19587,9.34811 -23.67194,11.08274 -10.19189,0.95687 -12.2851,2.14165 -9.56798,5.41557 2.09783,2.52773 24.99096,17.88745 26.66063,17.88745 0.68528,0 1.24596,-1.78617 1.24596,-3.96927 0,-4.58824 3.07458,-7.04281 11.65325,-9.30332 4.38055,-1.15428 5.84862,-2.26803 6.52105,-4.94718 0.47728,-1.90164 -0.52535,-18.83014 -2.22807,-37.61889 -2.66588,-29.41687 -3.05629,-41.01298 -2.811,-83.49469 0.29183,-50.54391 0.52088,-55.58971 3.14271,-69.23127 1.20636,-6.27683 2.55381,-8.93382 6.56467,-12.94468 11.70038,-11.70038 21.7709,-13.85765 64.0712,-13.72508 l 31.58047,0.099 2.24529,-9.1621 c 1.23491,-5.03915 1.94668,-9.46071 1.58172,-9.82567 -0.36497,-0.36497 -23.68656,-0.87335 -51.82577,-1.12974 -66.81914,-0.60883 -82.96758,-2.82515 -111.84632,-15.35054 -6.8374,-2.96555 -12.54441,-5.24295 -12.68224,-5.0609 -0.13783,0.18205 -1.33681,3.331 -2.6644,6.99767 -3.37643,9.32536 -6.37413,12.22859 -13.74088,13.30788 -24.7701,3.62902 -33.54686,21.81939 -33.55793,69.55085 -0.006,26.02623 4.74531,60.42368 8.92352,64.60189 1.44902,1.44902 18.50895,3.48583 35.95629,4.29288 l 12.2169,0.5651 6.44977,-9.47017 c 11.55488,-16.96598 12.98566,-18.18175 21.39721,-18.18175 5.73531,0 7.18171,0.40691 6.62288,1.8632 -0.83211,2.16845 -21.92961,31.74033 -26.48197,37.11917 l -3.08835,3.64904 -24.66667,-1.32137 c -29.91866,-1.60272 -46.99369,-3.03508 -82.35931,-6.90883 l -27.02598,-2.96027 -9.83923,4.86859 c -10.09103,4.99317 -18.47619,11.39421 -20.92844,15.97627 -0.76141,1.42272 -2.81159,15.59043 -4.55595,31.48381 -3.83109,34.90614 -5.84129,48.50744 -11.88791,80.43521 -6.51273,34.38893 -8.03389,48.5236 -6.17184,57.34895 1.78164,8.44426 22.8845,51.50431 27.25208,55.60743 2.68092,2.5186 20.30971,12.15722 22.25502,12.16804 0.40615,0.002 2.58897,-1.94589 4.85073,-4.32922 z m 178.41083,-75.62612 c 3.29495,-0.9535 7.11692,-3.55593 10,-6.80913 4.33877,-4.89576 5.36931,-5.35534 14.66667,-6.54075 5.5,-0.70125 13.15,-1.29353 17,-1.31617 l 7,-0.0412 v 6.66667 c 0,6.415 0.13841,6.66181 3.66667,6.53809 2.01666,-0.0707 6.96666,-0.82071 11,-1.66666 6.88468,-1.444 7.43724,-1.85637 9.03179,-6.74019 2.23282,-6.83876 4.3371,-27.54561 3.39145,-33.373 -0.41027,-2.52823 -1.4332,-4.8605 -2.27316,-5.18282 -0.83997,-0.32233 -9.57605,0.55265 -19.41351,1.9444 -9.83747,1.39175 -18.33233,2.06914 -18.87748,1.50531 -0.54515,-0.56383 -0.46281,-5.52514 0.18298,-11.02514 1.92626,-16.40542 2.01983,-16.0021 -3.70874,-15.98557 -10.45102,0.0302 -23,5.66661 -23,10.33058 0,3.82297 -9.84855,20.56733 -15.86848,26.97936 -4.83256,5.14732 -9.80581,8.29739 -23.26196,14.7342 -18.45646,8.82872 -22.2029,11.58611 -22.2029,16.34144 0,6.17324 1.74044,6.57551 25.33334,5.85541 12.1,-0.36932 24.4,-1.36601 27.33333,-2.21486 z m 58.77261,-54.26571 c 2.60568,-0.99989 2.99368,-3.24151 1.81021,-10.45826 -1.69165,-10.31559 -1.33634,-37.63248 0.62411,-47.98326 0.97227,-5.13333 3.93288,-17.54841 6.57915,-27.58905 5.1431,-19.51428 8.52866,-40.59694 7.11208,-44.28851 -2.0933,-5.45504 -21.18179,-10.73747 -42.60882,-11.79128 -8.60868,-0.42339 -9.08279,-0.29025 -9.84988,2.76606 -0.44323,1.76598 -0.47415,11.09155 -0.0687,20.72349 1.44512,34.33149 3.80355,80.29192 4.47358,87.17966 l 0.68099,7.00037 6.94978,-0.81681 c 9.98911,-1.17403 11.10225,0.53008 9.06963,13.88467 -2.27413,14.94127 -2.68738,14.0481 5.99764,12.96298 4.1483,-0.5183 8.30191,-1.23382 9.23025,-1.59006 z m -333.58015,-49.72551 14.61969,-20.42639 -4.8865,-4.47815 c -5.82619,-5.33931 -10.741565,-5.77513 -16.671038,-1.47814 -2.276856,1.65 -6.633327,4.8 -9.681046,7 -3.047719,2.2 -7.377456,5.55959 -9.621637,7.46574 l -4.080329,3.46574 4.445203,11.20093 c 6.108604,15.39233 7.922022,18.78799 9.714462,18.19051 0.847829,-0.28261 8.120367,-9.70572 16.161195,-20.94024 z m 454.52608,14.69673 c 11.24418,-4.33606 23.36878,-12.99862 30.29338,-21.64345 3.33239,-4.16022 11.10458,-17.28482 17.27153,-29.16579 12.88336,-24.82044 18.52666,-31.50835 32.71656,-38.77252 5.13333,-2.62789 9.33333,-5.30987 9.33333,-5.95997 0,-0.6501 -6.70026,-4.64883 -14.88947,-8.88608 l -14.88946,-7.70409 -10.44387,3.02624 c -9.33421,2.70471 -13.27719,3.02231 -37.11053,2.98922 -16.87446,-0.0234 -29.60434,-0.67796 -34.66667,-1.78246 -11.30037,-2.46551 -38.76262,-10.15843 -55.7418,-15.61479 -7.92465,-2.54663 -14.89858,-4.32733 -15.49762,-3.9571 -0.59903,0.37022 -0.24473,4.13474 0.78735,8.36559 1.14311,4.68599 1.93068,15.5098 2.01511,27.69422 0.13728,19.81102 0.079,20.22429 -6.10796,43.33334 -3.43561,12.83236 -6.54445,24.33599 -6.90853,25.56362 -1.43816,4.84929 33.67913,20.35062 55.38858,24.4494 14.94114,2.82091 38.56308,1.87731 48.45007,-1.93538 z M 79.060215,574.84898 c 5.28355,-3.56642 11.664299,-8.40789 14.179443,-10.75882 l 4.57299,-4.27442 -3.547863,-2.90785 c -4.071536,-3.33705 -11.556143,-17.47088 -11.581227,-21.86983 -0.0093,-1.62909 1.380737,-6.12909 3.088947,-10 1.70821,-3.87091 3.495501,-8.99948 3.971757,-11.39681 0.476257,-2.39733 2.729363,-8.22251 5.006903,-12.94485 4.378832,-9.07923 12.792595,-17.90485 31.932075,-33.49516 11.19015,-9.11508 44.48066,-32.28266 48.68567,-33.8814 4.17173,-1.58609 12.49591,1.90896 18.11319,7.60512 2.75263,2.79129 11.40565,15.27507 19.22892,27.74174 22.32744,35.57957 28.07613,43.08348 34.28718,44.75594 2.87372,0.77382 7.03745,1.00884 9.25273,0.52229 3.70359,-0.81345 3.95712,-1.22245 3.14975,-5.08144 -2.40922,-11.51545 -4.82095,-34.34753 -5.60155,-53.03058 l -0.87046,-20.8338 -21.86141,-20.29822 c -28.98237,-26.91002 -39.51943,-32.557 -51.44915,-27.57244 -2.36293,0.98729 -11.27449,8.09661 -19.80348,15.79848 -18.32957,16.55204 -37.03524,31.94629 -59.44743,48.9236 -16.691751,12.64406 -21.935169,18.0488 -26.769985,27.5936 -5.087375,10.0434 -20.264137,55.21146 -20.244172,60.24935 0.05045,12.73183 10.367216,41.6399 14.860519,41.6399 0.68211,0 5.563104,-2.91798 10.846653,-6.4844 z M 448.60894,500.18194 c 0.43375,-1.36662 -0.77131,-7.32106 -2.67791,-13.23209 -3.80933,-11.81004 -3.43281,-14.31522 2.63997,-17.56528 3.13419,-1.67736 5.21335,-1.28064 23.10324,4.40835 39.31326,12.5016 72.27996,19.2306 100.36633,20.48629 19.39283,0.86701 25.81868,-0.50455 43.20523,-9.2219 31.48174,-15.78446 34.00749,-20.77424 34.06114,-67.28995 l 0.0264,-22.89934 -43,0.74564 c -23.65,0.41011 -43.14388,0.85868 -43.31972,0.99683 -0.17584,0.13816 -0.47584,3.19615 -0.66667,6.79553 l -0.34695,6.54434 11.33334,2.78947 c 15.44741,3.80206 29.33333,8.55274 29.33333,10.03558 0,1.74705 -2.23573,1.51595 -6.4582,-0.66758 -2.01251,-1.04071 -7.83271,-2.30022 -12.93379,-2.79892 -8.20901,-0.80255 -9.68185,-0.58513 -12.81832,1.89219 -4.77507,3.77158 -9.68038,3.61539 -42.45636,-1.35182 -46.93981,-7.11374 -101.4417,-6.89888 -115.60041,0.45574 -12.51269,6.4996 -13.50071,10.23766 -14.07018,53.23289 l -0.32941,24.87121 16.66667,0.93825 c 9.16666,0.51605 19.06666,1.405 22,1.97547 8.88285,1.7275 11.09907,1.51577 11.94226,-1.1409 z m 96.04088,-92.67137 c 2.12804,-1.55606 2.50678,-3.73247 2.58817,-14.873 l 0.0954,-13.0502 -14,-2.41266 c -20.8356,-3.59067 -20.94224,-3.57587 -22.76045,3.15865 -0.84145,3.11667 -1.61458,9.5173 -1.71806,14.22363 l -0.18815,8.55696 4.47857,1.18546 c 2.46321,0.65201 9.66321,1.99326 16,2.98057 6.33678,0.98731 11.85675,1.85322 12.26659,1.92424 0.40984,0.071 1.86693,-0.69111 3.23798,-1.69365 z m 91.85629,-20.71233 c 5.30907,-0.66149 8.42921,-1.78334 9.66667,-3.47566 2.53429,-3.46586 2.35903,-10.83318 -0.28182,-11.84657 -3.21879,-1.23516 -20.96126,-0.964 -28.15865,0.43037 -16.08007,3.11521 -17.33888,3.05502 -21.51667,-1.02891 -3.51307,-3.43413 -5.08844,-3.89405 -16.21544,-4.73403 -6.77839,-0.5117 -12.51393,-0.74078 -12.74565,-0.50906 -0.23171,0.23171 -0.83948,5.03608 -1.35059,10.67636 l -0.92929,10.25506 13.17934,0.43806 c 25.53423,0.84872 50.59896,0.7604 58.3521,-0.20562 z m -179.92812,-13.9245 c -1.98469,-6.67154 -7.66275,-14.51646 -11.70521,-16.17214 -2.73994,-1.1222 -13.96635,-1.97633 -32.2061,-2.45029 -30.41237,-0.79027 -37.0102,-1.83092 -61.17087,-9.6482 -22.34416,-7.22954 -30.87659,-12.9349 -73.46984,-49.12688 l -15.52345,-13.19045 -5.28968,5.16524 c -2.90933,2.84088 -5.1224,5.90392 -4.91793,6.80674 0.59379,2.62186 43.32032,42.54487 55.03843,51.42705 21.91171,16.60882 44.17083,23.26256 92.20129,27.56102 36.34618,3.25279 41.64425,3.56133 50.84848,2.96125 6.50853,-0.42433 6.98414,-0.68025 6.19488,-3.33334 z m 39.62358,-5.99873 c 5.29152,-4.72797 4.65331,-8.65987 -1.13169,-6.97213 -5.57472,1.62639 -19.06987,8.49661 -19.06987,9.70824 0,0.58057 3.59053,1.05557 7.97896,1.05557 6.88438,0 8.56113,-0.52016 12.2226,-3.79168 z m -16.86823,-5.71103 c 12.61242,-5.23033 23.51828,-12.19129 20.19715,-12.89137 -1.35824,-0.28632 -5.17013,0.15945 -8.47087,0.99058 -3.30074,0.83114 -10.164,2.03384 -15.25169,2.67268 -10.2752,1.2902 -13.14125,2.91538 -13.14125,7.4517 0,8.28884 0.76577,8.37046 16.66666,1.77641 z m 136.75433,2.78914 c 3.5524,-1.90119 3.31307,-6.05043 -1.51133,-26.20148 -7.72863,-32.28174 -8.17449,-36.16404 -8.85268,-77.08495 -0.61699,-37.22739 0.0249,-46.00001 3.36598,-46.00001 0.6356,0 1.58599,13.05 2.11198,29.00001 0.52599,15.95 1.46498,32.3 2.08663,36.33333 0.62166,4.03333 2.04398,13.63334 3.16072,21.33334 2.73302,18.84442 8.39183,44.51329 10.86934,49.30427 1.10827,2.14315 2.01504,4.81102 2.01504,5.92861 0,2.78932 6.85976,6.10045 12.63847,6.10045 5.67402,0 20.69486,-7.21506 20.69486,-9.9405 0,-1.04617 -0.53662,-2.23377 -1.19249,-2.63912 -0.65587,-0.40535 -1.4796,-2.99076 -1.83052,-5.74535 -0.35092,-2.7546 -2.18324,-10.94198 -4.07182,-18.19419 -4.71602,-18.10964 -8.17726,-38.64855 -7.01959,-41.65408 0.84225,-2.18663 1.10502,-2.23594 2.13566,-0.40076 0.64638,1.15097 4.24196,16.13278 7.99017,33.29292 3.74822,17.16014 7.45248,31.96844 8.23169,32.90734 2.01203,2.42434 4.79196,2.11302 5.5921,-0.62626 2.30779,-7.90069 6.71366,-67.68225 5.37982,-72.9967 -0.54922,-2.18828 -3.06641,-4.5407 -7.35824,-6.87661 -3.5879,-1.95278 -6.52345,-4.39459 -6.52345,-5.42625 0,-1.56387 2.08829,-6.57787 3.38474,-8.12679 0.19627,-0.23449 2.82402,0.83231 5.83945,2.37066 6.25512,3.19113 42.26891,15.54569 74.27794,25.48112 16.93076,5.25522 22.27438,6.43121 24.29911,5.34761 3.14499,-1.68315 9.74476,-17.23555 12.89845,-30.3953 3.5925,-14.99081 2.24158,-34.8888 -3.96339,-58.37775 -2.7121,-10.26667 -5.6946,-23.76667 -6.62777,-30 -1.28237,-8.56588 -2.15394,-11.20394 -3.56927,-10.80345 -1.02992,0.29143 -6.07259,1.70592 -11.20592,3.14329 -5.13333,1.43738 -10.28058,3.44893 -11.43832,4.47012 -1.15774,1.02119 -2.76731,1.85671 -3.57682,1.85671 -1.92738,0 -2.56942,2.39619 -4.28708,16 -0.78703,6.23333 -2.70928,18.04667 -4.27165,26.25186 -2.57214,13.50828 -2.71929,16.78533 -1.55662,34.66667 0.70622,10.86148 0.83167,20.28597 0.27877,20.94331 -2.45555,2.91937 -9.24122,-21.31952 -10.38338,-37.09012 -0.48994,-6.76508 -1.3721,-10.76183 -2.45407,-11.11861 -2.24739,-0.74107 -6.53533,9.24384 -7.59262,17.68022 -1.62286,12.94908 -2.18734,15.33334 -3.63024,15.33334 -0.99864,0 -1.23131,-3.67492 -0.73865,-11.66667 0.56873,-9.22576 1.58378,-13.54353 4.8516,-20.63739 2.27283,-4.9339 4.13241,-9.5004 4.13241,-10.14779 0,-3.21337 -50.14238,-21.98592 -63.35146,-23.71781 -9.06529,-1.18859 -13.98666,-3.84318 -13.96224,-7.53125 0.0108,-1.63117 1.1565,-6.56576 2.54599,-10.96576 1.52191,-4.8193 2.04551,-8.50232 1.31695,-9.26341 -1.87256,-1.9562 -41.21591,-2.76612 -41.21591,-0.84848 0,0.8533 1.2,3.90365 2.66667,6.77855 2.91209,5.70817 3.50527,15.36733 1.24797,20.32155 -1.7277,3.79189 -11.72105,10.59189 -20.0478,13.64157 -3.37324,1.23546 -13.22007,2.94917 -21.88184,3.80825 l -15.74868,1.56197 -4.3002,12.83099 c -2.36511,7.05705 -5.05322,17.04461 -5.97357,22.19458 -2.39975,13.4282 -1.01557,37.43145 3.28552,56.97444 1.93674,8.8 5.79945,26.4575 8.58381,39.23889 4.10806,18.85771 5.54376,23.42756 7.6153,24.23962 1.40405,0.5504 8.70282,1.0429 16.21949,1.09444 l 13.66667,0.0937 v -4.13334 c 0,-4.80609 -5.08964,-10.26606 -15.41194,-16.53333 -5.64074,-3.42482 -7.37004,-5.57059 -12.02623,-14.92251 -6.08801,-12.2277 -10.68998,-30.90539 -11.73025,-47.60869 -0.57939,-9.30315 -0.4255,-10.30082 1.31969,-8.55563 1.08655,1.08656 4.33931,10.19878 7.22834,20.24939 6.64546,23.11882 12.47379,37.15238 17.52963,42.20822 4.44257,4.44257 8.33558,5.3173 7.25085,1.62922 -4.25743,-14.47521 -10.19583,-46.67357 -10.10671,-54.79917 0.0532,-4.85176 0.0592,-4.85672 1.85662,-1.53417 0.99177,1.83333 4.31445,15.33334 7.38372,30 6.37335,30.45543 13.49488,53.55503 17.57292,57.00001 3.0816,2.60322 11.82439,3.12769 15.88768,0.95309 z M 745.92675,263.88147 c -3.5167,-5.69013 -6.31146,-30.54812 -3.4345,-30.54812 0.63739,0 1.86249,5.48634 2.72244,12.19187 0.85995,6.70553 2.13844,13.26609 2.8411,14.57901 0.70266,1.31293 1.27756,3.02659 1.27756,3.80813 0,1.85201 -2.25555,1.83156 -3.4066,-0.0309 z m -228.14293,92.13232 c 6.62486,-7.87319 5.87247,-25.81203 -1.38708,-33.07158 -3.12688,-3.12688 -3.5573,-3.22738 -5.05433,-1.18007 -0.90001,1.23084 -3.18482,2.23788 -5.07737,2.23788 -5.57793,0 -5.42012,2.3633 0.35454,5.30931 2.95924,1.50969 5.45152,3.4827 5.53841,4.38446 0.33885,3.51682 -0.51313,5.63726 -2.95116,7.34492 -1.54101,1.07937 -2.54015,3.35729 -2.54015,5.79124 0,2.20663 -0.67597,5.27511 -1.50215,6.81885 -1.22689,2.29245 -1.05802,3.13154 0.9215,4.57901 3.91203,2.86054 8.09382,2.06906 11.69779,-2.21402 z m 22.94539,-13.01376 c -1.01884,-18.72691 -2.48025,-26.36335 -5.24856,-27.42565 -1.87759,-0.7205 -11.12337,0.95726 -12.41984,2.25374 -0.40037,0.40036 0.24716,3.16497 1.43896,6.14357 2.40154,6.00202 2.94821,23.32172 0.95543,30.27011 -0.66631,2.32329 -0.86631,4.56933 -0.44444,4.9912 0.42187,0.42186 4.3392,0.76703 8.70518,0.76703 h 7.93815 z M 479.078,346.6799 c 20.4567,-5.01722 31.68799,-10.34262 25.92201,-12.29112 -2.6679,-0.90156 -42.69785,2.78432 -46,4.2356 -2.25293,0.99015 -3,2.43236 -3,5.79151 0,7.68929 0.68395,7.75638 23.07799,2.26401 z m -36.39795,-0.0204 c 2.4467,-1.30943 2.44467,-1.51508 -0.0876,-8.8754 -1.42582,-4.1442 -2.59239,-8.38898 -2.59239,-9.43284 0,-3.56877 15.14971,-17.11523 24,-21.46015 8.28799,-4.06886 8.92883,-4.17914 14.66667,-2.52394 4.48409,1.29353 6.81439,2.9817 9.22339,6.68182 5.39432,8.28547 6.97656,6.76883 8.79586,-8.43117 1.24782,-10.42528 -1.56051,-40.51473 -5.47062,-58.61421 -5.96507,-27.61165 -19.61903,-63.64536 -23.61307,-62.31646 -0.88123,0.2932 -2.56067,3.12439 -3.73209,6.29153 -1.17143,3.16714 -2.47843,5.19444 -2.90446,4.50512 -0.42602,-0.68932 -0.67272,-6.33017 -0.54821,-12.53523 0.16674,-8.31021 -0.35252,-12.33554 -1.97136,-15.28192 -2.58105,-4.69767 -22.13259,-26 -23.86311,-26 -0.65228,0 -2.35144,2.25 -3.7759,5 -2.13297,4.11778 -2.75352,4.58407 -3.51703,2.64272 -0.5099,-1.29651 -0.16673,-4.19294 0.76259,-6.43653 1.57194,-3.79498 1.41992,-4.34705 -2.18149,-7.92257 -6.19771,-6.15313 -25.02742,-16.76503 -39.67358,-22.35892 -15.21138,-5.80976 -25.9343,-8.96578 -26.96393,-7.93614 -0.37943,0.37942 0.0659,5.91709 0.98964,12.30592 l 1.67951,11.61606 -4.54055,8.7575 c -4.40722,8.50034 -13.98478,20.15388 -15.40029,18.73837 -0.3848,-0.38479 1.40486,-3.82687 3.97701,-7.64907 5.48509,-8.15081 6.83542,-12.61837 8.641,-28.58863 1.89919,-16.79825 1.13984,-17.799583 -16.21687,-21.38471 -15.24254,-3.148435 -19.45253,-2.886746 -20.49683,1.274065 -1.07965,4.301655 -3.73191,3.542005 -4.29486,-1.230108 -0.54135,-4.589094 -4.1363,-6.03128 -17.62755,-7.071651 l -10.22962,-0.788851 -0.92365,3.680113 C 284.2826,93.33831 283.28332,101.6452 282.56999,109.774 l -1.29697,14.77963 4.36349,8.5444 c 2.39993,4.69941 8.13807,12.82485 12.75144,18.05652 4.61337,5.23167 10.91337,13.24313 14,17.80323 3.08663,4.56011 6.06206,8.31011 6.61206,8.33334 2.20728,0.0932 0.74886,-10.57676 -2.8646,-20.95777 -2.90369,-8.34191 -3.38738,-11.00001 -2.00166,-11.00001 3.00614,0 13.77394,14.84291 15.89366,21.90867 3.80935,12.69788 1.58657,34.58361 -5.2116,51.31402 l -3.40786,8.3868 4.54465,14.99324 c 6.73631,22.22373 9.20612,40.96221 7.38183,56.00603 -0.80422,6.63186 -2.39105,16.14967 -3.52629,21.15069 -1.95773,8.6243 -1.93727,9.18953 0.39723,10.97078 5.25297,4.0081 36.47716,13.72878 52.92757,16.47735 9.84622,1.64513 56.52107,1.7381 59.54711,0.11861 z m 10.00621,-69.35786 c 0.464,-0.75077 6.2806,-5.10077 12.92577,-9.66667 6.64518,-4.56591 13.21708,-9.13553 14.60421,-10.15472 3.57987,-2.6303 4.33595,-1.08229 1.83425,3.75545 -2.38104,4.60444 -10.55387,11.10942 -18.71715,14.89751 -5.80717,2.69476 -12.01119,3.3756 -10.64708,1.16843 z m -27.40568,-14.3294 c 1.80431,-1.26807 6.8999,-5.45558 11.32352,-9.30558 8.85692,-7.70843 10.69413,-8.49558 9.3359,-4 -1.19966,3.97073 -1.34426,4.09757 -10.60666,9.30424 -9.46572,5.32096 -15.14944,7.58327 -10.05276,4.00134 z m 25.3861,-19.06535 c 0,-3.32046 19.48461,-27.5334 20.9652,-26.05281 0.34356,0.34356 -1.38306,4.40915 -3.83694,9.03463 -6.03131,11.36882 -17.12826,22.39445 -17.12826,17.01818 z M 436.43983,232.8396 c 4.5611,-4.49511 10.97804,-12.33587 14.25987,-17.42393 l 5.96698,-9.25101 0.41384,5.66315 c 0.77597,10.61838 -11.33469,24.7089 -24.00705,27.93177 l -4.92654,1.25293 z m -38.75189,-5.52212 c 2.02836,-1.77437 6.05678,-3.864 8.95205,-4.64361 3.69763,-0.99567 8.66823,-4.63975 16.70345,-12.24576 12.17957,-11.52898 20.2581,-23.50833 25.42737,-37.70531 1.59085,-4.36913 3.53125,-8.1568 4.31201,-8.41706 2.32703,-0.77567 -6.76478,23.5152 -13.86825,37.05224 -5.58054,10.63483 -7.71013,13.35499 -13.76977,17.58844 -7.7986,5.44834 -17.7282,9.5568 -26.11146,10.80384 l -5.33333,0.79335 z m 1.86762,-21.53969 c -1.83567,-1.83567 -0.74759,-3.30622 3.87565,-5.23793 4.77781,-1.9963 9.90213,-1.50396 9.90213,0.95137 0,1.40753 -8.05812,5.17545 -11.06828,5.17545 -1.00134,0 -2.22061,-0.4 -2.7095,-0.88889 z M 363.3679,190.01198 c 16.42434,-9.70671 28.00073,-27.20557 33.96419,-51.34022 2.28415,-9.24418 3.37395,-11.87264 4.12563,-9.95053 1.62379,4.15213 1.2966,9.73121 -1.34532,22.94039 -2.85945,14.29678 -4.27299,16.81691 -15.61265,27.83515 -8.53607,8.29412 -16.11278,12.73349 -24.46518,14.33473 -4.17705,0.80078 -3.84958,0.42555 3.33333,-3.81952 z m 60.79305,-2.3453 c 0.87345,-1.65 2.95377,-4.80316 4.62293,-7.00701 1.66916,-2.20386 5.00494,-8.20386 7.41285,-13.33334 l 4.37801,-9.32632 0.47338,5.22798 c 0.61756,6.82027 -2.93294,15.89894 -8.72508,22.31015 -5.27324,5.83684 -10.90222,7.30479 -8.16209,2.12854 z m -19.40349,-5.10032 c 1.37725,-1.52184 4.14811,-3.73813 6.15747,-4.92509 2.18022,-1.28789 4.00765,-3.80124 4.53195,-6.23302 1.22153,-5.66565 5.40569,-13.60511 7.61724,-14.45376 3.37702,-1.29589 5.27978,1.11115 4.32276,5.46841 -1.88731,8.59291 -15.9235,22.91045 -22.46024,22.91045 -2.62112,0 -2.62442,-0.054 -0.16918,-2.76699 z m -44.51347,-17.56635 c 9.52775,-9.42667 15.82646,-20.30702 19.09677,-32.98762 2.77575,-10.76297 3.47493,-11.91927 4.89161,-8.08963 0.6518,1.76198 0.52138,6.52042 -0.30948,11.29157 -0.78981,4.53544 -1.32451,8.81762 -1.18823,9.51597 0.75037,3.84485 -0.8303,6.65373 -8.14403,14.47214 -7.30961,7.81399 -16.74232,14.13091 -21.10093,14.13091 -0.91761,0 2.12182,-3.75 6.75429,-8.33334 z m -30.8022,-33.33333 c 1.38006,-5.31667 2.90445,-13.42994 3.38753,-18.02949 0.7509,-7.14969 1.11705,-8.02006 2.52404,-6 0.90515,1.29955 2.07367,4.91282 2.59672,8.02949 0.52304,3.11666 1.49825,5.66666 2.16712,5.66666 3.69678,0 0.0424,9.03072 -6.6095,16.33334 -5.78303,6.34876 -6.85912,4.76078 -4.06591,-6 z m -24.66211,-6 c 1.33083,-2.01667 3.84263,-6.60244 5.58178,-10.19061 2.83496,-5.84901 3.37263,-6.31341 5.19715,-4.48889 2.5443,2.5443 0.95754,6.08158 -5.98684,13.34616 -5.59366,5.85157 -8.26408,6.59458 -4.79209,1.33334 z m -80.94179,190.52381 4.50456,-20.27851 -5.17122,-4.68765 c -7.15926,-6.48979 -14.68538,-9.82714 -22.23926,-9.86169 -6.13902,-0.0281 -6.48877,0.17563 -8.53385,4.97071 -4.41223,10.34535 -7.04138,22.88577 -5.60082,26.71465 2.47238,6.5714 14.90731,17.61869 19.83174,17.61869 0.78548,0 2.10038,-1.47542 2.92202,-3.27871 2.01423,-4.42076 -1.23778,-9.39197 -6.88246,-10.5209 -4.97509,-0.99502 -4.11051,-3.53372 1.20344,-3.53372 5.95286,0 8.7812,4.32432 8.87761,13.57322 0.0807,7.74702 1.81021,11.03207 5.25035,9.97292 0.73334,-0.22577 3.36039,-9.53583 5.83789,-20.68901 z m 254.36632,17.04403 c 15.50232,-2.01227 16.97972,-2.90186 12.05478,-7.2585 -3.3903,-2.99908 -4.8278,-3.30227 -15.33333,-3.23407 -6.37577,0.0414 -13.69232,0.79139 -16.25898,1.66666 -3.92143,1.33728 -4.66667,2.22059 -4.66667,5.5313 0,3.10051 0.71015,4.11018 3.33333,4.7392 1.83334,0.43962 4.53334,0.65087 6,0.46944 1.46667,-0.18143 8.15856,-1.04274 14.87087,-1.91403 z m -217.86719,-3.88007 c 4.56503,-3.59086 5.4548,-8.1546 2.85612,-14.64936 -1.7956,-4.48764 -7.75129,-10.70507 -10.25442,-10.70507 -2.70288,0 -3.43127,25.11367 -0.77715,26.79474 2.78116,1.76154 4.48703,1.461 8.17545,-1.44031 z m 56.92945,-17.35443 c 2.46243,-7.04809 3.36543,-31.83305 1.51577,-41.60381 -1.89963,-10.03474 -5.29902,-21.21428 -7.01278,-23.06284 -0.7983,-0.8611 -3.45557,1.02781 -7.50277,5.33333 -3.44668,3.66666 -9.75644,9.66665 -14.0217,13.33332 -6.60989,5.68225 -7.86466,7.49095 -8.49756,12.24888 -1.49391,11.23063 0.009,14.18676 12.57051,24.73226 21.05875,17.67843 20.06021,17.286 22.94853,9.01886 z m 161.40021,2.57898 c 0,-0.65129 -1.48424,-2.15668 -3.29831,-3.3453 -3.0993,-2.03074 -3.58197,-1.98581 -8,0.74467 -2.58593,1.5982 -4.70279,3.30688 -4.70412,3.79707 -0.001,0.49019 3.59866,0.68796 8,0.43949 4.40133,-0.24847 8.00243,-0.98464 8.00243,-1.63593 z M 245.30976,287.82626 c 6.19356,-3.77563 7.93049,-6.29589 7.98117,-11.58056 0.059,-6.15293 -1.78322,-8.98012 -8.31545,-12.76129 -5.47123,-3.16702 -8.37816,-3.95784 -13.37247,-3.63793 -3.60103,0.23066 -8.93634,6.70974 -8.93634,10.85207 0,5.1745 3.55512,13.0165 7.60064,16.76576 4.2609,3.94887 8.97249,4.06224 15.04245,0.36195 z m 25.3619,-13.49291 c 0.006,-7.14687 2.16771,-10.5496 16.72699,-26.33333 15.25743,-16.54059 19.26802,-22.17135 19.26802,-27.05177 0,-8.49448 -22.23768,-46.28157 -27.23667,-46.28157 -2.36697,0 -2.6217,0.86727 -6.07015,20.66667 -1.53269,8.8 -4.89009,23.96983 -7.46089,33.71074 -7.40147,28.04459 -7.44351,39.97613 -0.16897,47.95593 3.91952,4.29952 4.93602,3.75098 4.94167,-2.66667 z m -55.52745,-0.66666 c 1.22416,-7.40614 1.03152,-12.06736 -0.53883,-13.03789 -2.47423,-1.52915 -24.01736,-4.24688 -24.71512,-3.11788 -0.37127,0.60073 -1.01664,3.97649 -1.43414,7.50168 -0.92292,7.79257 0.12995,8.8965 10.991,11.52405 13.23267,3.20131 14.73909,2.92588 15.69709,-2.86996 z m 13.75185,-21.58423 c 3.0595,-1.38911 6.45782,-3.92593 7.55183,-5.63738 3.24284,-5.07307 12.85424,-59.00795 12.87672,-72.25843 0.0118,-6.94797 -7.06371,-20.17095 -11.78569,-22.02559 -4.75172,-1.86632 -18.00243,-3.9999 -26.20558,-4.21952 -14.54319,-0.38937 -13.80927,-0.73272 -17.9376,8.39181 -7.1184,15.73323 -7.36638,17.73709 -3.58889,29 4.33816,12.93457 8.33698,33.0766 10.03074,50.52476 0.7399,7.62195 1.87215,14.38498 2.51612,15.02895 1.35562,1.35562 11.14648,3.43392 16.97963,3.60426 2.2,0.0642 6.50322,-1.01975 9.56272,-2.40886 z m -12.28999,-42.02184 c -2.78598,-2.78597 -3.27273,-4.52908 -3.27273,-11.71987 0,-9.44173 2.93057,-22.26326 6.47628,-28.33436 3.0845,-5.28139 8.95763,-5.73766 8.66339,-0.67304 -0.10651,1.83333 -0.59464,4.56154 -1.08473,6.06268 -0.68026,2.08364 -0.0555,3.17651 2.64075,4.61951 10.79103,5.77519 9.25057,23.98448 -2.02903,23.98448 -3.95666,0 -5.59068,2.85952 -2.66666,4.66666 0.73333,0.45323 1.33333,1.68864 1.33333,2.74536 0,3.11842 -6.4583,2.25089 -10.0606,-1.35142 z m 39.29336,35.60607 c 4.90188,-16.46761 10.58063,-42.15177 12.68649,-57.37919 2.95236,-21.34839 3.14877,-20.28749 -3.75599,-20.28749 -3.37606,0 -6.48979,0.78689 -7.38579,1.8665 -0.85198,1.02657 -2.16696,7.47657 -2.92218,14.33333 -0.75522,6.85676 -3.47509,23.56684 -6.04417,37.13351 -5.89258,31.11729 -5.80143,29.5279 -1.81112,31.57989 5.52774,2.84259 6.44349,2.12384 9.23276,-7.24655 z m 60.26258,-44.26023 2.98246,-9.26023 -4.86762,-9.73978 c -5.23269,-10.47025 -21.17745,-30.40644 -24.31875,-30.40644 -1.05225,0 -3.47336,3.07889 -5.38026,6.84197 l -3.46709,6.84197 4.10403,5.49137 c 2.25721,3.02025 6.32487,9.09136 9.03925,13.49136 11.73044,19.01504 16.47494,26 17.66034,26 0.69586,0 2.60729,-4.1671 4.24764,-9.26022 z m 275.74958,-11.14815 c 10.42116,-5.15623 10.4713,-6.03556 1.40999,-24.72849 -9.97711,-20.58216 -12.09843,-23.53064 -19.18468,-26.66523 -4.02536,-1.7806 -8.55004,-5.91267 -15.22349,-13.90251 -5.22265,-6.25287 -11.01279,-12.56217 -12.86696,-14.02067 -3.69889,-2.90954 -30.3961,-14.941403 -33.15313,-14.941403 -1.51149,0 -3.1417,4.896593 -12.52308,37.615013 -0.48063,1.67624 0.97551,3.07346 5.48777,5.26569 5.8858,2.85954 6.142,3.2232 6.142,8.71832 0,5.69001 0.0369,5.73431 4.77778,5.73431 5.70858,0 5.61147,2.4121 -0.20957,5.20584 -2.14585,1.02987 -4.34235,2.52987 -4.88113,3.33333 -1.66253,2.47931 -1.12466,7.16612 1.07483,9.3656 2.52872,2.52873 14.30005,2.80103 26.82182,0.62045 10.21159,-1.77827 10.64863,-1.50929 17.35058,10.67838 2.6604,4.83803 5.467,9.61268 6.23687,10.61034 2.12667,2.75589 21.20826,0.83781 28.7404,-2.88897 z m -65.56478,-63.26622 c -1.27593,-0.28367 -2.81384,-2.42201 -3.41757,-4.75188 -0.67949,-2.62224 -2.08155,-4.4132 -3.68012,-4.70091 -3.80386,-0.68463 -4.95688,-2.25906 -3.95837,-5.40507 0.66851,-2.10631 1.98911,-2.80089 5.32533,-2.80089 5.82668,0 21.36691,4.84012 24.00257,7.47578 2.63154,2.63154 1.32063,4.89624 -2.18932,3.78223 -1.82433,-0.57903 -3.80996,0.19241 -6.22112,2.41697 -4.02616,3.71456 -6.52738,4.725 -9.8614,3.98377 z M 275.49437,159.5583 c 1.85968,-2.51262 4.6296,-9.86395 5.30271,-14.07331 0.81418,-5.09162 0.51125,-5.82372 -4.47167,-10.80663 -4.98384,-4.98385 -5.85705,-5.34502 -12.92286,-5.34502 -9.85102,0 -12.01018,1.31252 -14.03067,8.529 -1.47362,5.26326 -1.37752,6.56189 0.81163,10.96786 2.9049,5.84653 7.67935,9.66908 13.98023,11.19292 3.62405,0.87647 10.54813,0.59242 11.33063,-0.46482 z m 484.68877,-3.61998 c 4.45445,-1.50059 9.64169,-3.73916 11.52719,-4.97459 4.85267,-3.17959 29.84561,-37.04691 34.86791,-47.24864 4.23546,-8.603444 6.02281,-19.64351 3.33516,-20.60054 -0.78097,-0.278093 -3.78097,4.132746 -6.66667,9.801864 -4.99689,9.816696 -8.58005,13.686376 -8.58005,9.266136 0,-1.12182 2.1,-5.622777 4.66667,-10.002127 2.56667,-4.37935 4.66667,-8.611496 4.66667,-9.404769 0,-0.793273 0.5413,-1.442315 1.2029,-1.442315 1.48899,0 4.13043,-7.324666 4.13043,-11.453609 0,-5.774077 -2.7285,-4.733962 -6.18236,2.356739 -6.0523,12.425224 -7.84204,15.092167 -10.26363,15.294099 -2.18167,0.181925 -2.20294,-0.02499 -0.2741,-2.666667 1.15011,-1.575142 2.41408,-3.763895 2.80884,-4.863895 0.39476,-1.1 1.87391,-4.4 3.28702,-7.333334 3.0356,-6.301329 4.23371,-23.386848 1.70245,-24.277705 -2.46594,-0.867864 -5.16227,5.695823 -8.49445,20.678082 -3.14752,14.151929 -7.23092,23.072108 -6.22552,13.599624 0.27242,-2.566667 1.9209,-12.299023 3.6633,-21.627457 1.74239,-9.328435 2.72156,-17.407214 2.17593,-17.952842 -2.53293,-2.532933 -5.69735,2.49198 -8.36969,13.290565 -2.99583,12.105785 -8.55034,25.128311 -15.46481,36.257139 -2.50862,4.037627 -4.27508,8.784492 -4.44611,11.947722 -0.21141,3.90983 -0.97726,5.50499 -3.0027,6.25426 -3.64406,1.34802 -5.72963,-1.37529 -7.06299,-9.22277 -0.58686,-3.453973 -1.68346,-9.87995 -2.43689,-14.27995 -1.31235,-7.664031 -5.04283,-16.666668 -6.90627,-16.666668 -2.54438,0 -3.12012,82.440208 -0.60417,86.511108 1.40097,2.26682 7.9623,1.78691 16.94594,-1.23946 z M 239.64913,143.66668 c 1.76314,-2.24494 3.12417,-9.83736 2.19672,-12.25426 -0.41158,-1.07255 -2.64526,-2.56639 -4.96375,-3.31964 -6.63983,-2.1572 -43.66499,-8.33347 -45.57144,-7.6019 -0.94434,0.36238 -2.37556,3.72971 -3.18048,7.48296 -2.6271,12.24972 -3.73522,11.38175 16.86982,13.21383 10.08334,0.89656 20.43334,2.13469 23,2.75141 6.92795,1.66464 10.18767,1.58841 11.64913,-0.2724 z m 376.35088,-11.72062 c 2.83087,-1.54546 -2.47842,-3.38071 -17.70206,-6.11902 -11.4769,-2.06438 -20.68399,-5.57141 -26.93925,-10.26132 -2.50419,-1.87752 -2.43497,-1.94529 1.33333,-1.30532 2.18606,0.37126 9.37465,2.36281 15.97465,4.42567 13.63602,4.26201 40.64435,8.78612 44.23235,7.40928 2.95667,-1.13459 -5.70054,-4.98361 -31.56568,-14.03422 -9.9,-3.46417 -20.1,-7.3818 -22.66667,-8.70585 -6.95789,-3.589315 -20.29866,-12.834396 -19.57068,-13.56237 1.21648,-1.21648 12.08324,2.461647 16.14566,5.464907 5.80963,4.294924 22.67638,10.933233 32.09169,12.630443 4.4,0.79314 12.19809,2.64276 17.32909,4.11025 11.12371,3.18144 15.77176,3.35813 17.99115,0.68394 1.34615,-1.62202 1.19341,-2.14473 -0.83674,-2.86352 -8.80625,-3.11789 -12.05752,-5.14096 -16.65385,-10.362654 -5.90207,-6.705108 -13.2617,-11.317831 -23.82965,-14.935469 -6.86726,-2.350812 -7.0665,-2.536606 -3.13486,-2.923333 4.32482,-0.425402 12.09494,2.827669 31.13486,13.03505 10.51218,5.635626 17.19406,6.748426 20.02674,3.335262 0.92763,-1.117722 1.45109,-2.259186 1.16326,-2.536588 -1.52678,-1.471438 -22.97812,-12.145176 -36.11697,-17.971042 -21.22334,-9.41059 -30.01945,-11.50322 -38.85237,-9.243135 -9.73693,2.491393 -33.49567,2.077492 -40.05016,-0.697715 -6.61479,-2.800731 -18.5713,-2.796166 -26.80763,0.01023 -3.937,1.341471 -9.03096,4.688259 -13.08876,8.599455 -6.23382,6.008601 -6.59956,6.729117 -5.93411,11.690382 0.67704,5.047754 9.10049,19.413653 9.83756,16.777613 4.07852,-14.586441 4.88579,-16.596983 6.66403,-16.596983 3.60535,0 31.31794,11.981653 37.41497,16.176523 3.29014,2.26368 10.92116,8.76809 16.95782,14.45425 11.29566,10.63983 15.43792,12.82382 27.98843,14.75676 7.49956,1.15503 24.32541,0.2719 27.46385,-1.44148 z M 179.24134,120.97468 c 0.77932,-3.1549 0.76778,-5.49889 -0.031,-6.29768 -1.75409,-1.75408 -27.05531,-2.37951 -27.38745,-0.67699 -0.34758,1.78167 20.12135,12.37177 23.51046,12.16371 1.92167,-0.11797 3.01346,-1.56764 3.908,-5.18904 z m 75.5364,-1.93346 c 0.72421,-1.90483 1.14549,-8.91835 0.93617,-15.5856 l -0.38057,-12.12228 h -3.87277 c -3.49798,0 -4.11132,0.701833 -6.33787,7.252233 -2.4665,7.256337 -6.28036,12.486957 -10.93251,14.993717 -4.02379,2.16818 -4.9171,-0.44055 -2.83285,-8.27278 2.89361,-10.873664 2.55504,-13.915553 -1.97289,-17.725555 -3.96564,-3.336866 -5.09639,-3.600612 -32.71778,-7.631378 -5.86667,-0.856118 -14.98913,-2.922533 -20.27215,-4.592034 -9.09637,-2.874568 -11.06118,-2.969193 -11.06118,-0.532703 0,1.261398 7.55257,6.554551 28,19.623548 18.1837,11.622132 21.33333,14.341642 21.33333,18.419972 0,4.27996 4.23673,6.55632 16.66667,8.95488 19.22929,3.71061 21.05843,3.49355 23.4444,-2.78202 z m 21.13316,1.12529 c 0.73592,-1.37509 1.7419,-10.54737 2.2355,-20.382839 1.02596,-20.443317 0.63538,-21.451477 -8.90158,-22.976499 -3.08045,-0.492584 -5.75947,-0.725708 -5.95338,-0.518053 -0.19391,0.207654 -0.56381,10.216886 -0.822,22.242737 -0.44775,20.855294 -0.34627,21.913274 2.19723,22.906284 4.87997,1.90521 9.84451,1.34376 11.24423,-1.27163 z" id="path1"/>
  </g>
</svg>